<svg viewBox="0 0 700 200" xmlns="http://www.w3.org/2000/svg" width="700" height="200">
  <defs>
    <marker id="arr" markerWidth="8" markerHeight="8" refX="6" refY="3" orient="auto">
      <path d="M0,0 L0,6 L8,3 z" fill="#4a90d9"/>
    </marker>
  </defs>

  <rect x="0" y="0" width="700" height="200" fill="#0e1318"/>

  <!-- Harness background -->
  <rect x="10" y="10" width="680" height="175" rx="8" fill="none" stroke="#6a4fc9" stroke-width="2" stroke-dasharray="6 3"/>
  <text x="350" y="172" font-family="monospace" font-size="11" fill="#9b7de8" text-anchor="middle">4. Harness — coordinates inference, workspace, and runtime</text>

  <!-- Feature 1 -->
  <rect x="30" y="28" width="150" height="115" rx="6" fill="#1e2533" stroke="#4a90d9" stroke-width="1.5"/>
  <text x="105" y="72" font-family="monospace" font-size="11" fill="#4a90d9" text-anchor="middle">1</text>
  <text x="105" y="92" font-family="monospace" font-size="13" fill="#e0e8f0" text-anchor="middle">Inference</text>
  <text x="105" y="110" font-family="monospace" font-size="13" fill="#e0e8f0" text-anchor="middle">Endpoint</text>
  <text x="105" y="128" font-family="monospace" font-size="10" fill="#8899aa" text-anchor="middle">(local or API)</text>

  <!-- Feature 2 -->
  <rect x="210" y="28" width="150" height="115" rx="6" fill="#1e2533" stroke="#4a90d9" stroke-width="1.5"/>
  <text x="285" y="72" font-family="monospace" font-size="11" fill="#4a90d9" text-anchor="middle">2</text>
  <text x="285" y="92" font-family="monospace" font-size="13" fill="#e0e8f0" text-anchor="middle">Workspace</text>
  <text x="285" y="110" font-family="monospace" font-size="13" fill="#e0e8f0" text-anchor="middle">Integration</text>
  <text x="285" y="128" font-family="monospace" font-size="10" fill="#8899aa" text-anchor="middle">(read/write FS)</text>

  <!-- Feature 3 -->
  <rect x="390" y="28" width="150" height="115" rx="6" fill="#1e2533" stroke="#4a90d9" stroke-width="1.5"/>
  <text x="465" y="72" font-family="monospace" font-size="11" fill="#4a90d9" text-anchor="middle">3</text>
  <text x="465" y="92" font-family="monospace" font-size="13" fill="#e0e8f0" text-anchor="middle">App</text>
  <text x="465" y="110" font-family="monospace" font-size="13" fill="#e0e8f0" text-anchor="middle">Runtime</text>

  <!-- Arrows -->
  <line x1="180" y1="86" x2="208" y2="86" stroke="#4a90d9" stroke-width="1.5" marker-end="url(#arr)"/>
  <line x1="360" y1="86" x2="388" y2="86" stroke="#4a90d9" stroke-width="1.5" marker-end="url(#arr)"/>
</svg>
