<svg viewBox="0 0 720 420" xmlns="http://www.w3.org/2000/svg" width="720" height="420">
  <defs>
    <marker id="arrowA" markerWidth="8" markerHeight="8" refX="6" refY="3" orient="auto">
      <path d="M0,0 L0,6 L8,3 z" fill="#4ac994"/>
    </marker>
    <marker id="arrowB" markerWidth="8" markerHeight="8" refX="6" refY="3" orient="auto">
      <path d="M0,0 L0,6 L8,3 z" fill="#e8a44a"/>
    </marker>
    <marker id="arrowC" markerWidth="8" markerHeight="8" refX="6" refY="3" orient="auto">
      <path d="M0,0 L0,6 L8,3 z" fill="#e84a7a"/>
    </marker>
  </defs>

  <rect x="0" y="0" width="720" height="420" fill="#0e1318" rx="10"/>

  <!-- Component A -->
  <rect x="30" y="30" width="200" height="170" rx="8" fill="#161c28" stroke="#4ac994" stroke-width="1.5"/>
  <text x="50" y="58" font-family="monospace" font-size="14" font-weight="bold" fill="#4ac994">A. Coding Agent</text>
  <text x="50" y="78" font-family="monospace" font-size="11" fill="#8899bb">covers features 1 + 2</text>
  <line x1="50" y1="88" x2="210" y2="88" stroke="#4ac994" stroke-width="0.5" opacity="0.4"/>
  <text x="50" y="108" font-family="monospace" font-size="11" fill="#aabbcc">· LLM inference</text>
  <text x="50" y="126" font-family="monospace" font-size="11" fill="#aabbcc">  (local or remote API)</text>
  <text x="50" y="146" font-family="monospace" font-size="11" fill="#aabbcc">· Filesystem read/write</text>
  <text x="50" y="166" font-family="monospace" font-size="11" fill="#aabbcc">· Code generation + exec</text>

  <!-- Component B -->
  <rect x="260" y="30" width="200" height="230" rx="8" fill="#161c28" stroke="#e8a44a" stroke-width="1.5"/>
  <text x="280" y="58" font-family="monospace" font-size="14" font-weight="bold" fill="#e8a44a">B. Rust Process</text>
  <text x="280" y="78" font-family="monospace" font-size="11" fill="#8899bb">harness (feature 4)</text>
  <line x1="280" y1="88" x2="440" y2="88" stroke="#e8a44a" stroke-width="0.5" opacity="0.4"/>
  <text x="280" y="108" font-family="monospace" font-size="11" fill="#aabbcc">· WS server</text>
  <text x="280" y="126" font-family="monospace" font-size="11" fill="#aabbcc">  ← talks to Agent (A)</text>
  <text x="280" y="146" font-family="monospace" font-size="11" fill="#aabbcc">· CRDT state</text>
  <text x="280" y="164" font-family="monospace" font-size="11" fill="#aabbcc">  ← talks to Runtime (C)</text>
  <text x="280" y="190" font-family="monospace" font-size="10" fill="#667788">note: agent could run CRDT</text>
  <text x="280" y="206" font-family="monospace" font-size="10" fill="#667788">but cross-lang issues → WS</text>
  <text x="280" y="222" font-family="monospace" font-size="10" fill="#667788">conn to agent instead</text>

  <!-- Component C -->
  <rect x="490" y="30" width="200" height="170" rx="8" fill="#161c28" stroke="#e84a7a" stroke-width="1.5"/>
  <text x="510" y="58" font-family="monospace" font-size="14" font-weight="bold" fill="#e84a7a">C. App Runtime</text>
  <text x="510" y="78" font-family="monospace" font-size="11" fill="#8899bb">runtime (feature 3)</text>
  <line x1="510" y1="88" x2="670" y2="88" stroke="#e84a7a" stroke-width="0.5" opacity="0.4"/>
  <text x="510" y="108" font-family="monospace" font-size="11" fill="#aabbcc">· Makepad "host"</text>
  <text x="510" y="126" font-family="monospace" font-size="11" fill="#aabbcc">· Launches Splash</text>
  <text x="510" y="144" font-family="monospace" font-size="11" fill="#aabbcc">  mini-apps</text>
  <text x="510" y="164" font-family="monospace" font-size="11" fill="#aabbcc">· CRDT consumer</text>

  <!-- A → B (WS) -->
  <line x1="230" y1="112" x2="258" y2="112" stroke="#4ac994" stroke-width="1.8" marker-end="url(#arrowA)"/>
  <line x1="260" y1="122" x2="232" y2="122" stroke="#e8a44a" stroke-width="1.8" marker-end="url(#arrowB)"/>
  <text x="245" y="106" font-family="monospace" font-size="10" fill="#4ac994" text-anchor="middle">WS</text>

  <!-- B → C (CRDT) -->
  <line x1="460" y1="112" x2="488" y2="112" stroke="#e8a44a" stroke-width="1.8" marker-end="url(#arrowB)"/>
  <line x1="490" y1="122" x2="462" y2="122" stroke="#e84a7a" stroke-width="1.8" marker-end="url(#arrowC)"/>
  <text x="475" y="106" font-family="monospace" font-size="10" fill="#e8a44a" text-anchor="middle">CRDT</text>

  <!-- Feature mapping table -->
  <rect x="30" y="290" width="660" height="112" rx="6" fill="#131920" stroke="#2a3444" stroke-width="1"/>
  <text x="50" y="314" font-family="monospace" font-size="12" font-weight="bold" fill="#778899">Feature → Component mapping</text>
  <text x="50"  y="336" font-family="monospace" font-size="11" fill="#4ac994">1. Inference endpoint</text>
  <text x="260" y="336" font-family="monospace" font-size="11" fill="#aabbcc">→  Component A</text>
  <text x="50"  y="355" font-family="monospace" font-size="11" fill="#4ac994">2. Workspace integration</text>
  <text x="260" y="355" font-family="monospace" font-size="11" fill="#aabbcc">→  Component A</text>
  <text x="50"  y="374" font-family="monospace" font-size="11" fill="#e8a44a">4. Harness</text>
  <text x="260" y="374" font-family="monospace" font-size="11" fill="#aabbcc">→  Component B</text>
  <text x="50"  y="393" font-family="monospace" font-size="11" fill="#e84a7a">3. App runtime</text>
  <text x="260" y="393" font-family="monospace" font-size="11" fill="#aabbcc">→  Component C</text>
</svg>
